<svg width="512" height="512" viewBox="0 0 512 512" fill="none" xmlns="http://www.w3.org/2000/svg">
  <rect width="512" height="512" rx="128" fill="#185FA5"/>
  <path d="M256 128L128 256L256 384L384 256L256 128Z" fill="white" opacity="0.2"/>
  <path d="M256 160C194.144 160 144 210.144 144 272C144 333.856 194.144 384 256 384C317.856 384 368 333.856 368 272C368 210.144 317.856 160 256 160ZM256 352C211.888 352 176 316.112 176 272C176 227.888 211.888 192 256 192C300.112 192 336 227.888 336 272C336 316.112 300.112 352 256 352Z" fill="white"/>
  <circle cx="256" cy="272" r="48" fill="white"/>
  <text x="256" y="450" font-family="Arial, sans-serif" font-size="120" font-weight="bold" fill="white" text-anchor="middle">F</text>
</svg>
